<svg width="34" height="25" viewBox="0 0 34 25" fill="none" xmlns="http://www.w3.org/2000/svg">
<path d="M6.61131 0C2.95738 0 0 2.79576 0 6.25V18.75C0 22.2042 2.95738 25 6.61131 25C10.2652 25 13.2226 22.2042 13.2226 18.75V6.25C13.2226 2.79576 10.2652 0 6.61131 0ZM9.44473 12.5H3.77789V6.25C3.77789 4.77121 5.04703 3.57143 6.61131 3.57143C8.17559 3.57143 9.44473 4.77121 9.44473 6.25V12.5ZM17.6912 10.8426C17.4846 10.6473 17.1363 10.6696 16.9651 10.8873C14.2911 14.375 14.5803 19.2634 17.9037 22.4051C21.227 25.5469 26.398 25.8203 30.0874 23.2924C30.3235 23.1306 30.3412 22.8013 30.1346 22.606L17.6912 10.8426ZM31.2561 9.78237C27.9328 6.64062 22.7618 6.36719 19.0724 8.89509C18.8363 9.05692 18.8186 9.38616 19.0252 9.58147L31.4687 21.3449C31.6753 21.5402 32.0235 21.5179 32.1947 21.3002C34.8688 17.8069 34.5854 12.9241 31.2561 9.78237Z" fill="#8E8E8E"/>
</svg>
